<svg height="465pt" viewBox="-16 0 465 465.40022" width="465pt" xmlns="http://www.w3.org/2000/svg"><path d="m432.398438 103.601562-37.296876 118.5c-6.558593 20.824219-25.867187 34.992188-47.703124 35h-235.5l-.5.097657-26.097657-153.5.398438-.097657zm0 0" fill="#00efd1"/><g fill="#00acea"><path d="m363.398438 383.800781c22.535156 0 40.800781 18.265625 40.800781 40.800781 0 22.53125-18.265625 40.796876-40.800781 40.796876-22.53125 0-40.796876-18.265626-40.796876-40.796876.023438-22.523437 18.273438-40.777343 40.796876-40.800781zm0 0"/><path d="m149.5 383.800781c22.535156 0 40.800781 18.265625 40.800781 40.800781 0 22.53125-18.265625 40.796876-40.800781 40.796876-22.53125 0-40.800781-18.265626-40.800781-40.796876-.003907-10.824218 4.292969-21.203124 11.945312-28.859374 7.652344-7.652344 18.03125-11.949219 28.855469-11.941407zm0 0"/><path d="m394.199219 339.5h-228.199219c-29.304688.054688-54.347656-21.097656-59.199219-50l-40.101562-236.199219c-3.238281-19.234375-19.894531-33.3125-39.398438-33.300781h-17.101562c-5.523438 0-10-4.476562-10-10s4.476562-10 10-10h17.101562c29.292969-.078125 54.324219 21.097656 59.097657 50l40.101562 236.300781c3.238281 19.230469 19.898438 33.3125 39.398438 33.300781h228.203124c5.515626.015626 9.984376 4.480469 10 10 .007813 2.628907-1.03125 5.152344-2.890624 7.011719-1.855469 1.859375-4.382813 2.898438-7.011719 2.886719zm0 0"/></g></svg>