<?xml version="1.0" encoding="iso-8859-1"?>
<!-- Generator: Adobe Illustrator 19.0.0, SVG Export Plug-In . SVG Version: 6.00 Build 0)  -->
<svg version="1.1" id="Capa_1" xmlns="http://www.w3.org/2000/svg" xmlns:xlink="http://www.w3.org/1999/xlink" x="0px" y="0px"
	 viewBox="0 0 511.998 511.998" style="enable-background:new 0 0 511.998 511.998;" xml:space="preserve">
<rect x="195.54" y="414.569" style="fill:#3C3B41;" width="120.92" height="54.946"/>
<rect x="195.54" y="414.569" style="fill:#2A2A2C;" width="120.92" height="20.16"/>
<path style="fill:#57555C;" d="M477.485,418.209H34.515c-14.876,0-26.936-12.06-26.936-26.936V88.994
	c0-14.876,12.06-26.936,26.936-26.936h442.971c14.876,0,26.936,12.06,26.936,26.936v302.28
	C504.421,406.15,492.362,418.209,477.485,418.209z"/>
<path style="fill:#CAE8F8;" d="M480.603,340.529H31.397c-13.154,0-23.818-10.664-23.818-23.818V85.876
	c0-13.154,10.664-23.818,23.818-23.818h449.207c13.154,0,23.818,10.664,23.818,23.818v230.835
	C504.421,329.866,493.757,340.529,480.603,340.529z"/>
<path style="fill:#3C3B41;" d="M477.485,62.058h-52.737c14.876,0,26.935,12.06,26.935,26.936v302.28
	c0,14.876-12.059,26.936-26.935,26.936h52.737c14.876,0,26.936-12.06,26.936-26.936V88.994
	C504.421,74.118,492.361,62.058,477.485,62.058z"/>
<path style="fill:#48BBEE;" d="M480.603,62.058h-52.737H31.397c-13.154,0-23.818,10.664-23.818,23.818v87.477h318.209
	c69.53,0,125.896,56.366,125.896,125.896v17.462c0,13.154-10.663,23.818-23.818,23.818h52.737c13.154,0,23.818-10.664,23.818-23.818
	V173.353V85.876C504.421,72.722,493.757,62.058,480.603,62.058z"/>
<path style="fill:#57555C;" d="M377.507,493.947H134.493l0,0c0-15.508,12.572-28.08,28.08-28.08h186.855
	C364.935,465.867,377.507,478.439,377.507,493.947L377.507,493.947z"/>
<path style="fill:#FFB74F;" d="M226.456,173.353h-47.075c0.002,0.122,0.009,0.243,0.009,0.365c0,12.294-9.966,22.26-22.26,22.26
	s-22.26-9.966-22.26-22.26c0-0.122,0.007-0.243,0.009-0.365H87.804c-1.819,0-3.294,1.475-3.294,3.294v27.716
	c0,1.819,1.475,3.294,3.294,3.294h15.015c4.802,0,8.695,3.893,8.695,8.695v90.564h91.231v-90.564c0-4.802,3.893-8.695,8.695-8.695
	h15.015c1.819,0,3.294-1.475,3.294-3.294v-27.716C229.75,174.827,228.275,173.353,226.456,173.353z"/>
<path style="fill:#E80B6A;" d="M409.508,288.953H280.57c-3.732,0-6.757-3.025-6.757-6.757v-35.305c0-3.732,3.025-6.757,6.757-6.757
	h128.938c3.732,0,6.757,3.025,6.757,6.757v35.305C416.265,285.928,413.24,288.953,409.508,288.953z"/>
<g>
	<path style="fill:#FFB74F;" d="M225.116,140.391L225.116,140.391c17.057,0,30.884-13.827,30.884-30.884V17.889h-61.769v91.618
		C194.231,126.564,208.059,140.391,225.116,140.391z"/>
	<path style="fill:#FFB74F;" d="M101.578,140.391L101.578,140.391c17.057,0,30.884-13.827,30.884-30.884V17.889H70.694v91.618
		C70.694,126.564,84.521,140.391,101.578,140.391z"/>
	<path style="fill:#FFB74F;" d="M317.769,17.889v91.618c0,17.057,13.827,30.884,30.884,30.884l0,0
		c17.057,0,30.884-13.827,30.884-30.884V17.889H317.769z"/>
	<path style="fill:#FFB74F;" d="M462.17,17.889h-20.864v91.618c0,17.057,13.827,30.884,30.884,30.884l0,0
		c17.057,0,30.884-13.827,30.884-30.884V58.376C503.075,36.015,484.761,17.889,462.17,17.889z"/>
</g>
<g>
	<path style="fill:#FFDBA9;" d="M286.884,140.391L286.884,140.391c17.057,0,30.884-13.827,30.884-30.884V17.889H256v91.618
		C256,126.564,269.827,140.391,286.884,140.391z"/>
	<path style="fill:#FFDBA9;" d="M410.422,140.391L410.422,140.391c17.057,0,30.884-13.827,30.884-30.884V17.889h-61.769v91.618
		C379.537,126.564,393.365,140.391,410.422,140.391z"/>
	<path style="fill:#FFDBA9;" d="M39.809,140.391L39.809,140.391c17.057,0,30.884-13.827,30.884-30.884V17.889H49.83
		c-22.591,0-40.905,18.127-40.905,40.488v48.205v2.926C8.925,126.564,22.752,140.391,39.809,140.391z"/>
	<path style="fill:#FFDBA9;" d="M163.347,140.391L163.347,140.391c17.057,0,30.884-13.827,30.884-30.884V17.889h-61.769v91.618
		C132.463,126.564,146.29,140.391,163.347,140.391z"/>
</g>
<path d="M463.293,10.471H48.707C21.85,10.471,0,32.133,0,58.759v257.953v74.562c0,19.031,15.483,34.514,34.514,34.514h153.444
	v32.501h-25.386c-19.662,0-35.659,15.997-35.659,35.659c0,4.186,3.393,7.579,7.579,7.579h243.014c4.186,0,7.579-3.393,7.579-7.579
	c0-19.662-15.996-35.659-35.659-35.659H324.04v-32.501h153.444c19.031,0,34.514-15.483,34.514-34.514v-74.562V58.759
	C512,32.133,490.15,10.471,463.293,10.471z M325.684,96.142V25.629h46.947v70.512v14.027c0,12.943-10.53,23.473-23.474,23.473
	c-12.943,0-23.474-10.53-23.474-23.473V96.142H325.684z M201.474,96.142V25.629h109.053v70.512v14.027
	c0,12.943-10.53,23.473-23.474,23.473c-12.943,0-23.474-10.53-23.474-23.473V96.142V52.993c0-4.186-3.393-7.579-7.579-7.579
	s-7.579,3.393-7.579,7.579v43.149v14.027c0,12.943-10.53,23.473-23.474,23.473s-23.474-10.53-23.474-23.473L201.474,96.142
	L201.474,96.142z M139.368,96.142V25.629h46.947v70.512v14.027c0,12.943-10.53,23.473-23.474,23.473
	c-12.943,0-23.474-10.53-23.474-23.473L139.368,96.142L139.368,96.142z M77.263,96.142V25.629h46.947v70.512v14.027
	c0,12.943-10.53,23.473-23.474,23.473s-23.474-10.53-23.474-23.473L77.263,96.142L77.263,96.142z M15.158,107.227V68.764V58.759
	c0-18.268,15.05-33.129,33.549-33.129h13.398v70.512v14.027c0,12.943-10.53,23.473-23.474,23.473s-23.474-10.53-23.474-23.473
	v-2.942H15.158z M349.427,473.447c8.629,0,16.029,5.358,19.049,12.922H143.524c3.02-7.564,10.421-12.922,19.049-12.922h32.965
	h120.924H349.427z M203.117,458.289v-32.501h105.766v32.501H203.117z M496.842,316.712c0,8.954-7.284,16.239-16.239,16.239H110.147
	c-4.186,0-7.579,3.393-7.579,7.579s3.393,7.579,7.579,7.579h370.456c5.939,0,11.498-1.658,16.239-4.535v47.7
	c0,10.673-8.683,19.356-19.357,19.356H316.462H195.538H34.514c-10.673,0-19.357-8.683-19.357-19.356v-47.7
	c4.741,2.877,10.3,4.535,16.239,4.535h46.076c4.186,0,7.579-3.393,7.579-7.579s-3.393-7.579-7.579-7.579H31.397
	c-8.954,0-16.239-7.285-16.239-16.239V140.821c6.512,4.999,14.649,7.979,23.474,7.979c12.713,0,24.009-6.175,31.053-15.681
	c7.044,9.506,18.34,15.681,31.053,15.681s24.009-6.175,31.053-15.681c7.044,9.506,18.34,15.681,31.053,15.681
	s24.009-6.175,31.053-15.681c7.044,9.506,18.34,15.681,31.053,15.681s24.009-6.175,31.053-15.681
	c7.044,9.506,18.34,15.681,31.053,15.681s24.009-6.175,31.053-15.681c7.044,9.506,18.34,15.681,31.053,15.681
	s24.009-6.175,31.053-15.681c7.044,9.506,18.34,15.681,31.053,15.681s24.009-6.175,31.053-15.681
	c7.044,9.506,18.34,15.681,31.053,15.681c8.824,0,16.962-2.981,23.474-7.979v175.891H496.842z M496.842,68.764v38.462v2.942
	c0,12.943-10.53,23.473-23.474,23.473c-12.943,0-23.474-10.53-23.474-23.473V96.142c0-4.186-3.393-7.579-7.579-7.579
	s-7.579,3.393-7.579,7.579v14.027c0,12.943-10.53,23.473-23.474,23.473c-12.943,0-23.474-10.53-23.474-23.473V96.142V25.629h46.947
	v37.01c0,4.186,3.393,7.579,7.579,7.579s7.579-3.393,7.579-7.579v-37.01h13.398c18.499,0,33.549,14.862,33.549,33.129v10.006
	H496.842z"/>
<path d="M226.456,165.774h-47.075c-2.031,0-3.977,0.815-5.402,2.263c-1.425,1.449-2.209,3.408-2.176,5.439l0.008,0.243
	c0,8.095-6.586,14.681-14.681,14.681s-14.681-6.586-14.681-14.625l0.008-0.299c0.033-2.031-0.751-3.99-2.176-5.439
	c-1.425-1.448-3.371-2.263-5.402-2.263H87.804c-5.995,0-10.873,4.878-10.873,10.873v27.716c0,5.995,4.877,10.872,10.873,10.872
	h15.015c0.615,0,1.116,0.501,1.116,1.117v90.563c0,4.186,3.393,7.579,7.579,7.579h91.231c4.186,0,7.579-3.393,7.579-7.579v-90.563
	c0-0.616,0.501-1.117,1.116-1.117h15.015c5.995,0,10.873-4.877,10.873-10.872v-27.716
	C237.329,170.652,232.451,165.774,226.456,165.774z M222.171,200.076h-10.73c-8.973,0-16.274,7.301-16.274,16.275v82.984h-76.073
	v-82.984c0-8.974-7.301-16.275-16.274-16.275H92.09v-19.145h36.083c3.234,12.98,14.991,22.625,28.958,22.625
	s25.723-9.645,28.958-22.625h36.083v19.145H222.171z"/>
<path d="M416.674,166.355h-142.98c-4.186,0-7.579,3.393-7.579,7.579c0,4.186,3.393,7.579,7.579,7.579h142.98
	c4.186,0,7.579-3.393,7.579-7.579C424.254,169.748,420.86,166.355,416.674,166.355z"/>
<path d="M273.695,216.017h110.08c4.186,0,7.579-3.393,7.579-7.579s-3.393-7.579-7.579-7.579h-110.08
	c-4.186,0-7.579,3.393-7.579,7.579S269.509,216.017,273.695,216.017z"/>
<path d="M409.508,232.554H280.57c-7.905,0-14.336,6.431-14.336,14.337v35.304c0,7.906,6.431,14.337,14.336,14.337h128.938
	c7.905,0,14.336-6.431,14.336-14.337v-35.304C423.844,238.986,417.413,232.554,409.508,232.554z M408.686,281.375H281.392v-33.662
	h127.294V281.375z"/>
<circle style="fill:#3C3B41;" cx="253.09" cy="378.339" r="15.284"/>
<g>
</g>
<g>
</g>
<g>
</g>
<g>
</g>
<g>
</g>
<g>
</g>
<g>
</g>
<g>
</g>
<g>
</g>
<g>
</g>
<g>
</g>
<g>
</g>
<g>
</g>
<g>
</g>
<g>
</g>
</svg>
